<svg width="38" height="34" viewBox="0 0 38 34" fill="none" xmlns="http://www.w3.org/2000/svg">
<path fill-rule="evenodd" clip-rule="evenodd" d="M15.2987 1.27625C15.8845 0.690467 16.8343 0.690467 17.4201 1.27625C18.0058 1.86204 18.0058 2.81179 17.4201 3.39757L5.94954 14.8681L36.2473 14.8681C37.0757 14.8681 37.7473 15.5397 37.7473 16.3681C37.7473 17.1965 37.0757 17.8681 36.2473 17.8681L4.7932 17.8681L17.4201 30.495C18.0058 31.0807 18.0058 32.0305 17.4201 32.6163C16.8343 33.2021 15.8845 33.2021 15.2987 32.6163L0.689388 18.0069C0.103603 17.4211 0.103603 16.4714 0.689388 15.8856L15.2987 1.27625Z" fill="url(#paint0_linear_442_26465)"/>
<defs>
<linearGradient id="paint0_linear_442_26465" x1="34.4141" y1="21.5449" x2="1.14904" y2="20.6471" gradientUnits="userSpaceOnUse">
<stop stop-color="#D63BD7"/>
<stop offset="1" stop-color="#FA40A3"/>
</linearGradient>
</defs>
</svg>
