<svg width="13" height="18" viewBox="0 0 13 18" fill="#2A59E0" xmlns="http://www.w3.org/2000/svg">
<path d="M0 2.16629C0 1.59175 0.228233 1.04075 0.63449 0.63449C1.04075 0.228233 1.59175 0 2.16628 0L10.8314 0C11.406 0 11.957 0.228233 12.3632 0.63449C12.7695 1.04075 12.9977 1.59175 12.9977 2.16629V16.7887C12.9977 16.8867 12.971 16.9828 12.9207 17.0668C12.8703 17.1508 12.7981 17.2196 12.7118 17.2659C12.6254 17.3121 12.5281 17.3341 12.4303 17.3294C12.3324 17.3247 12.2377 17.2936 12.1561 17.2393L6.49885 14.1903L0.841602 17.2393C0.760047 17.2936 0.665299 17.3247 0.567449 17.3294C0.469599 17.3341 0.372312 17.3121 0.285949 17.2659C0.199586 17.2196 0.127382 17.1508 0.0770267 17.0668C0.0266713 16.9828 5.06049e-05 16.8867 0 16.7887V2.16629ZM2.16628 1.08314C1.87902 1.08314 1.60352 1.19726 1.40039 1.40039C1.19726 1.60352 1.08314 1.87902 1.08314 2.16629V15.7771L6.19882 13.0887C6.28771 13.0295 6.39209 12.998 6.49885 12.998C6.60562 12.998 6.71 13.0295 6.79889 13.0887L11.9146 15.7771V2.16629C11.9146 1.87902 11.8004 1.60352 11.5973 1.40039C11.3942 1.19726 11.1187 1.08314 10.8314 1.08314H2.16628Z" fill="#2A59E0"/>
</svg>
