<svg width="16" height="16" viewBox="0 0 16 16" fill="none" xmlns="http://www.w3.org/2000/svg">
<path d="M14.1317 15.7567C13.72 15.7567 13.3084 15.605 12.9834 15.28L0.720029 3.01669C0.091696 2.38836 0.091696 1.34836 0.720029 0.720029C1.34836 0.091696 2.38836 0.091696 3.0167 0.720029L15.28 12.9834C15.9084 13.6117 15.9084 14.6517 15.28 15.28C14.955 15.605 14.5434 15.7567 14.1317 15.7567Z" fill="white"/>
<path d="M1.86836 15.7567C1.4567 15.7567 1.04503 15.605 0.720029 15.28C0.091696 14.6517 0.091696 13.6117 0.720029 12.9834L12.9834 0.720029C13.6117 0.091696 14.6517 0.091696 15.28 0.720029C15.9084 1.34836 15.9084 2.38836 15.28 3.01669L3.0167 15.28C2.71336 15.605 2.28003 15.7567 1.86836 15.7567Z" fill="white"/>
</svg>
