<svg width="19" height="19" viewBox="0 0 19 19" fill="none" xmlns="http://www.w3.org/2000/svg">
<path fill-rule="evenodd" clip-rule="evenodd" d="M5.41007 -9.15527e-05H3C1.34314 -9.15527e-05 0 1.34306 0 2.99991V5.40998C0 7.06684 1.34315 8.40998 3 8.40998H5.41007C7.06693 8.40998 8.41007 7.06683 8.41007 5.40998V2.99991C8.41007 1.34305 7.06692 -9.15527e-05 5.41007 -9.15527e-05ZM1 2.99991C1 1.89534 1.89543 0.999908 3 0.999908H5.41007C6.51464 0.999908 7.41007 1.89534 7.41007 2.99991V5.40998C7.41007 6.51455 6.51464 7.40998 5.41007 7.40998H3C1.89543 7.40998 1 6.51455 1 5.40998V2.99991ZM5.41007 9.97119H3C1.34314 9.97119 0 11.3143 0 12.9712V15.3813C0 17.0381 1.34315 18.3813 3 18.3813H5.41007C7.06693 18.3813 8.41007 17.0381 8.41007 15.3813V12.9712C8.41007 11.3143 7.06692 9.97119 5.41007 9.97119ZM1 12.9712C1 11.8666 1.89543 10.9712 3 10.9712H5.41007C6.51464 10.9712 7.41007 11.8666 7.41007 12.9712V15.3813C7.41007 16.4858 6.51464 17.3813 5.41007 17.3813H3C1.89543 17.3813 1 16.4858 1 15.3813V12.9712ZM12.9712 -9.15527e-05H15.3813C17.0382 -9.15527e-05 18.3813 1.34305 18.3813 2.99991V5.40998C18.3813 7.06683 17.0382 8.40998 15.3813 8.40998H12.9712C11.3144 8.40998 9.97123 7.06684 9.97123 5.40998V2.99991C9.97123 1.34306 11.3144 -9.15527e-05 12.9712 -9.15527e-05ZM12.9712 0.999908C11.8667 0.999908 10.9712 1.89534 10.9712 2.99991V5.40998C10.9712 6.51455 11.8667 7.40998 12.9712 7.40998H15.3813C16.4859 7.40998 17.3813 6.51455 17.3813 5.40998V2.99991C17.3813 1.89534 16.4859 0.999908 15.3813 0.999908H12.9712ZM15.3813 9.97119H12.9712C11.3144 9.97119 9.97123 11.3143 9.97123 12.9712V15.3813C9.97123 17.0381 11.3144 18.3813 12.9712 18.3813H15.3813C17.0382 18.3813 18.3813 17.0381 18.3813 15.3813V12.9712C18.3813 11.3143 17.0382 9.97119 15.3813 9.97119ZM10.9712 12.9712C10.9712 11.8666 11.8667 10.9712 12.9712 10.9712H15.3813C16.4859 10.9712 17.3813 11.8666 17.3813 12.9712V15.3813C17.3813 16.4858 16.4859 17.3813 15.3813 17.3813H12.9712C11.8667 17.3813 10.9712 16.4858 10.9712 15.3813V12.9712Z" fill="white"/>
</svg>
