<svg width="44" height="42" viewBox="0 0 44 42" fill="none" xmlns="http://www.w3.org/2000/svg">
<path fill-rule="evenodd" clip-rule="evenodd" d="M18.4101 12H16C14.3431 12 13 13.3431 13 15V17.4101C13 19.0669 14.3431 20.4101 16 20.4101H18.4101C20.0669 20.4101 21.4101 19.0669 21.4101 17.4101V15C21.4101 13.3431 20.0669 12 18.4101 12ZM14 15C14 13.8954 14.8954 13 16 13H18.4101C19.5146 13 20.4101 13.8954 20.4101 15V17.4101C20.4101 18.5146 19.5146 19.4101 18.4101 19.4101H16C14.8954 19.4101 14 18.5146 14 17.4101V15ZM18.4101 21.9713H16C14.3431 21.9713 13 23.3144 13 24.9713V27.3813C13 29.0382 14.3431 30.3813 16 30.3813H18.4101C20.0669 30.3813 21.4101 29.0382 21.4101 27.3813V24.9713C21.4101 23.3144 20.0669 21.9713 18.4101 21.9713ZM14 24.9713C14 23.8667 14.8954 22.9713 16 22.9713H18.4101C19.5146 22.9713 20.4101 23.8667 20.4101 24.9713V27.3813C20.4101 28.4859 19.5146 29.3813 18.4101 29.3813H16C14.8954 29.3813 14 28.4859 14 27.3813V24.9713ZM25.9712 12H28.3813C30.0382 12 31.3813 13.3431 31.3813 15V17.4101C31.3813 19.0669 30.0382 20.4101 28.3813 20.4101H25.9712C24.3144 20.4101 22.9712 19.0669 22.9712 17.4101V15C22.9712 13.3431 24.3144 12 25.9712 12ZM25.9712 13C24.8667 13 23.9712 13.8954 23.9712 15V17.4101C23.9712 18.5146 24.8667 19.4101 25.9712 19.4101H28.3813C29.4859 19.4101 30.3813 18.5146 30.3813 17.4101V15C30.3813 13.8954 29.4859 13 28.3813 13H25.9712ZM28.3813 21.9713H25.9712C24.3144 21.9713 22.9712 23.3144 22.9712 24.9713V27.3813C22.9712 29.0382 24.3144 30.3813 25.9712 30.3813H28.3813C30.0382 30.3813 31.3813 29.0382 31.3813 27.3813V24.9713C31.3813 23.3144 30.0382 21.9713 28.3813 21.9713ZM23.9712 24.9713C23.9712 23.8667 24.8667 22.9713 25.9712 22.9713H28.3813C29.4859 22.9713 30.3813 23.8667 30.3813 24.9713V27.3813C30.3813 28.4859 29.4859 29.3813 28.3813 29.3813H25.9712C24.8667 29.3813 23.9712 28.4859 23.9712 27.3813V24.9713Z" fill="white"/>
</svg>
