<svg width="34" height="34" viewBox="0 0 34 34" fill="none" xmlns="http://www.w3.org/2000/svg">
<path d="M14.1667 9.91667H25.5001" stroke="white" stroke-width="1.5" stroke-linecap="round"/>
<path d="M14.1667 17.0002H25.5001" stroke="white" stroke-width="1.5" stroke-linecap="round"/>
<path d="M14.1667 24.0832H25.5001" stroke="white" stroke-width="1.5" stroke-linecap="round"/>
<path fill-rule="evenodd" clip-rule="evenodd" d="M8.49992 11.3333C9.28232 11.3333 9.91659 10.6991 9.91659 9.91667C9.91659 9.13426 9.28232 8.5 8.49992 8.5C7.71752 8.5 7.08325 9.13426 7.08325 9.91667C7.08325 10.6991 7.71752 11.3333 8.49992 11.3333Z" fill="white"/>
<path fill-rule="evenodd" clip-rule="evenodd" d="M8.49992 18.4168C9.28232 18.4168 9.91659 17.7826 9.91659 17.0002C9.91659 16.2178 9.28232 15.5835 8.49992 15.5835C7.71752 15.5835 7.08325 16.2178 7.08325 17.0002C7.08325 17.7826 7.71752 18.4168 8.49992 18.4168Z" fill="white"/>
<path fill-rule="evenodd" clip-rule="evenodd" d="M8.49992 25.4998C9.28232 25.4998 9.91659 24.8656 9.91659 24.0832C9.91659 23.3008 9.28232 22.6665 8.49992 22.6665C7.71752 22.6665 7.08325 23.3008 7.08325 24.0832C7.08325 24.8656 7.71752 25.4998 8.49992 25.4998Z" fill="white"/>
</svg>
