<svg width="22" height="22" viewBox="0 0 22 22" fill="none" xmlns="http://www.w3.org/2000/svg">
<path d="M19.25 7.10425H2.75C2.37417 7.10425 2.0625 6.79258 2.0625 6.41675C2.0625 6.04091 2.37417 5.72925 2.75 5.72925H19.25C19.6258 5.72925 19.9375 6.04091 19.9375 6.41675C19.9375 6.79258 19.6258 7.10425 19.25 7.10425Z" fill="white"/>
<path d="M19.25 11.6875H2.75C2.37417 11.6875 2.0625 11.3758 2.0625 11C2.0625 10.6242 2.37417 10.3125 2.75 10.3125H19.25C19.6258 10.3125 19.9375 10.6242 19.9375 11C19.9375 11.3758 19.6258 11.6875 19.25 11.6875Z" fill="white"/>
<path d="M19.25 16.2708H2.75C2.37417 16.2708 2.0625 15.9591 2.0625 15.5833C2.0625 15.2074 2.37417 14.8958 2.75 14.8958H19.25C19.6258 14.8958 19.9375 15.2074 19.9375 15.5833C19.9375 15.9591 19.6258 16.2708 19.25 16.2708Z" fill="white"/>
</svg>
