<svg width="20" height="20" viewBox="0 0 20 20" fill="none" xmlns="http://www.w3.org/2000/svg">
<path d="M14.3345 7.11287C15.3975 7.11287 16.2592 6.25114 16.2592 5.18815C16.2592 4.12515 15.3975 3.26343 14.3345 3.26343C13.2715 3.26343 12.4098 4.12515 12.4098 5.18815C12.4098 6.25114 13.2715 7.11287 14.3345 7.11287Z" stroke="white" stroke-width="1.5" stroke-miterlimit="10" stroke-linecap="round" stroke-linejoin="round"/>
<path d="M5.66545 7.11287C6.72845 7.11287 7.59017 6.25114 7.59017 5.18815C7.59017 4.12515 6.72845 3.26343 5.66545 3.26343C4.60246 3.26343 3.74072 4.12515 3.74072 5.18815C3.74072 6.25114 4.60246 7.11287 5.66545 7.11287Z" stroke="white" stroke-width="1.5" stroke-miterlimit="10" stroke-linecap="round" stroke-linejoin="round"/>
<path d="M14.3345 16.7365C15.3975 16.7365 16.2592 15.8748 16.2592 14.8118C16.2592 13.7488 15.3975 12.8871 14.3345 12.8871C13.2715 12.8871 12.4098 13.7488 12.4098 14.8118C12.4098 15.8748 13.2715 16.7365 14.3345 16.7365Z" stroke="white" stroke-width="1.5" stroke-miterlimit="10" stroke-linecap="round" stroke-linejoin="round"/>
<path d="M5.66545 16.7365C6.72845 16.7365 7.59017 15.8748 7.59017 14.8118C7.59017 13.7488 6.72845 12.8871 5.66545 12.8871C4.60246 12.8871 3.74072 13.7488 3.74072 14.8118C3.74072 15.8748 4.60246 16.7365 5.66545 16.7365Z" stroke="white" stroke-width="1.5" stroke-miterlimit="10" stroke-linecap="round" stroke-linejoin="round"/>
</svg>
