<svg width="26" height="18" viewBox="0 0 26 18" fill="none" xmlns="http://www.w3.org/2000/svg">
<path d="M20.5 8.29501C20.4342 8.29539 20.3689 8.28278 20.308 8.2579C20.2471 8.23302 20.1917 8.19635 20.145 8.15001L13.85 1.85501C13.7681 1.75936 13.7252 1.63633 13.7301 1.51049C13.735 1.38465 13.7871 1.26528 13.8762 1.17623C13.9652 1.08718 14.0846 1.03502 14.2104 1.03016C14.3363 1.0253 14.4593 1.0681 14.555 1.15001L20.855 7.44501C20.9238 7.51521 20.9704 7.60412 20.9889 7.70064C21.0075 7.79716 20.9972 7.89701 20.9593 7.98771C20.9214 8.07841 20.8576 8.15593 20.7759 8.21059C20.6942 8.26524 20.5983 8.29461 20.5 8.29501Z" fill="#2A59E0"/>
<path d="M18.26 7.78023L17.555 7.07523L13.955 10.6752C13.8907 10.7394 13.8451 10.8198 13.8231 10.9079C13.8011 10.996 13.8035 11.0884 13.83 11.1752C14.0335 11.8617 14.0702 12.5868 13.9372 13.2903C13.8041 13.9939 13.5051 14.6555 13.065 15.2202L6.78999 8.93524C7.35474 8.49512 8.01636 8.19611 8.71988 8.06306C9.4234 7.93001 10.1485 7.96675 10.835 8.17023C10.9218 8.19676 11.0142 8.19914 11.1023 8.17712C11.1904 8.1551 11.2708 8.10951 11.335 8.04523L14.935 4.44523L14.22 3.74023L10.825 7.13523C9.92122 6.91733 8.97684 6.93337 8.08099 7.18182C7.18515 7.43028 6.36741 7.90296 5.70499 8.55523C5.65812 8.60172 5.62093 8.65702 5.59554 8.71795C5.57016 8.77888 5.55709 8.84423 5.55709 8.91023C5.55709 8.97624 5.57016 9.04159 5.59554 9.10252C5.62093 9.16345 5.65812 9.21875 5.70499 9.26523L8.86999 12.4302L5.14499 16.1452C5.09265 16.1901 5.05014 16.2452 5.02012 16.3072C4.99011 16.3693 4.97325 16.4368 4.97059 16.5057C4.96793 16.5746 4.97953 16.6432 5.00467 16.7074C5.02981 16.7716 5.06793 16.8298 5.11666 16.8786C5.16539 16.9273 5.22366 16.9654 5.28783 16.9906C5.35199 17.0157 5.42065 17.0273 5.48951 17.0246C5.55837 17.022 5.62594 17.0051 5.68797 16.9751C5.75 16.9451 5.80516 16.9026 5.84999 16.8502L9.56999 13.1302L12.735 16.2952C12.7817 16.3416 12.8371 16.3782 12.898 16.4031C12.959 16.428 13.0242 16.4406 13.09 16.4402C13.1561 16.44 13.2216 16.4266 13.2825 16.4008C13.3435 16.3751 13.3987 16.3375 13.445 16.2902C14.0949 15.6262 14.566 14.8084 14.8143 13.9131C15.0626 13.0178 15.08 12.0741 14.865 11.1702L18.26 7.78023Z" fill="#2A59E0"/>
</svg>
