<svg width="26" height="18" viewBox="0 0 26 18" fill="none" xmlns="http://www.w3.org/2000/svg">
<path d="M20.5 8.35519C20.4342 8.35557 20.3689 8.34296 20.308 8.31807C20.2471 8.29319 20.1917 8.25653 20.145 8.21019L13.85 1.91019C13.7681 1.81454 13.7252 1.6915 13.7301 1.56566C13.735 1.43982 13.7871 1.32046 13.8762 1.23141C13.9652 1.14236 14.0846 1.09019 14.2104 1.08533C14.3363 1.08047 14.4593 1.12328 14.555 1.20519L20.855 7.50019C20.9255 7.57012 20.9736 7.65947 20.9931 7.75685C21.0126 7.85422 21.0027 7.95521 20.9647 8.04693C20.9266 8.13865 20.862 8.21696 20.7793 8.27186C20.6965 8.32676 20.5993 8.35577 20.5 8.35519Z" fill="white"/>
<path d="M14.22 3.79492L10.825 7.18992C9.92122 6.97202 8.97684 6.98805 8.08099 7.23651C7.18515 7.48497 6.36741 7.95765 5.70499 8.60992C5.65812 8.6564 5.62093 8.7117 5.59554 8.77263C5.57016 8.83356 5.55709 8.89892 5.55709 8.96492C5.55709 9.03093 5.57016 9.09628 5.59554 9.15721C5.62093 9.21814 5.65812 9.27344 5.70499 9.31992L8.86499 12.4999L5.14499 16.2049C5.09265 16.2497 5.05014 16.3049 5.02012 16.3669C4.99011 16.429 4.97325 16.4965 4.97059 16.5654C4.96793 16.6343 4.97953 16.7029 5.00467 16.7671C5.02981 16.8312 5.06793 16.8895 5.11666 16.9382C5.16539 16.987 5.22366 17.0251 5.28783 17.0502C5.35199 17.0754 5.42065 17.087 5.48951 17.0843C5.55837 17.0817 5.62594 17.0648 5.68797 17.0348C5.75 17.0048 5.80516 16.9623 5.84999 16.9099L9.56999 13.1899L12.735 16.3549C12.7817 16.4013 12.8371 16.4379 12.898 16.4628C12.959 16.4877 13.0242 16.5003 13.09 16.4999C13.1561 16.4996 13.2216 16.4862 13.2825 16.4605C13.3435 16.4347 13.3987 16.3972 13.445 16.3499C14.0949 15.6859 14.566 14.8681 14.8143 13.9728C15.0626 13.0774 15.08 12.1338 14.865 11.2299L18.26 7.83492L14.22 3.79492Z" fill="white"/>
</svg>
