<svg width="18" height="18" viewBox="0 0 18 18" fill="none" xmlns="http://www.w3.org/2000/svg">
<path fill-rule="evenodd" clip-rule="evenodd" d="M13.9973 1.33308C12.8929 1.33308 11.9977 2.22833 11.9977 3.33269C11.9977 4.43705 12.8929 5.33231 13.9973 5.33231C15.1017 5.33231 15.9969 4.43705 15.9969 3.33269C15.9969 2.22833 15.1017 1.33308 13.9973 1.33308ZM10.6646 3.33269C10.6646 1.49211 12.1567 0 13.9973 0C15.838 0 17.33 1.49211 17.33 3.33269C17.33 5.17328 15.838 6.66538 13.9973 6.66538C12.1567 6.66538 10.6646 5.17328 10.6646 3.33269ZM6.55217 7.8005L9.8518 6.15068L9.25563 4.95834L5.95539 6.60846C5.34525 5.83144 4.39726 5.33231 3.33269 5.33231C1.49211 5.33231 0 6.82436 0 8.665C0 10.5056 1.49211 11.9977 3.33269 11.9977C5.17328 11.9977 6.66538 10.5056 6.66538 8.665C6.66538 8.366 6.62601 8.0762 6.55217 7.8005ZM3.33269 6.66538C2.22833 6.66538 1.33308 7.56061 1.33308 8.665C1.33308 9.76939 2.22833 10.6646 3.33269 10.6646C4.43705 10.6646 5.33231 9.76939 5.33231 8.665C5.33231 7.56061 4.43705 6.66538 3.33269 6.66538ZM10.7778 13.1328C10.704 13.4085 10.6646 13.6983 10.6646 13.9973C10.6646 15.8379 12.1567 17.33 13.9973 17.33C15.8379 17.33 17.33 15.8379 17.33 13.9973C17.33 12.1567 15.8379 10.6646 13.9973 10.6646C12.9327 10.6646 11.9848 11.1637 11.3746 11.9407L8.07436 10.2906L7.4782 11.483L10.7778 13.1328ZM13.9973 11.9977C12.8929 11.9977 11.9977 12.8929 11.9977 13.9973C11.9977 15.1017 12.8929 15.9969 13.9973 15.9969C15.1017 15.9969 15.9969 15.1017 15.9969 13.9973C15.9969 12.8929 15.1017 11.9977 13.9973 11.9977Z" fill="white"/>
</svg>
