<svg width="46" height="40" viewBox="0 0 46 40" fill="none" xmlns="http://www.w3.org/2000/svg">
<path d="M0.908633 0.878359C0.34622 1.44094 0.0302735 2.20387 0.0302736 2.99936C0.0302736 3.79485 0.34622 4.55778 0.908633 5.12036L15.7586 19.9704L0.908635 34.8204C0.362161 35.3862 0.0597762 36.144 0.0666115 36.9306C0.0734468 37.7172 0.388954 38.4696 0.945179 39.0258C1.5014 39.582 2.25384 39.8975 3.04043 39.9044C3.82702 39.9112 4.58483 39.6088 5.15063 39.0624L22.1216 22.0914C22.684 21.5288 23 20.7659 23 19.9704C23 19.1749 22.684 18.4119 22.1216 17.8494L5.15063 0.878359C4.58805 0.315946 3.82512 -1.65878e-07 3.02963 -1.31106e-07C2.23414 -9.63341e-08 1.47122 0.315946 0.908633 0.878359Z" fill="black"/>
<path d="M0.908633 0.878359C0.34622 1.44094 0.0302735 2.20387 0.0302736 2.99936C0.0302736 3.79485 0.34622 4.55778 0.908633 5.12036L15.7586 19.9704L0.908635 34.8204C0.362161 35.3862 0.0597762 36.144 0.0666115 36.9306C0.0734468 37.7172 0.388954 38.4696 0.945179 39.0258C1.5014 39.582 2.25384 39.8975 3.04043 39.9044C3.82702 39.9112 4.58483 39.6088 5.15063 39.0624L22.1216 22.0914C22.684 21.5288 23 20.7659 23 19.9704C23 19.1749 22.684 18.4119 22.1216 17.8494L5.15063 0.878359C4.58805 0.315946 3.82512 -1.65878e-07 3.02963 -1.31106e-07C2.23414 -9.63341e-08 1.47122 0.315946 0.908633 0.878359Z" fill="#898989"/>
<path d="M23.9086 0.878359C23.3462 1.44094 23.0303 2.20387 23.0303 2.99936C23.0303 3.79485 23.3462 4.55778 23.9086 5.12036L38.7586 19.9704L23.9086 34.8204C23.3622 35.3862 23.0598 36.144 23.0666 36.9306C23.0734 37.7172 23.389 38.4696 23.9452 39.0258C24.5014 39.582 25.2538 39.8975 26.0404 39.9044C26.827 39.9112 27.5848 39.6088 28.1506 39.0624L45.1216 22.0914C45.684 21.5288 46 20.7659 46 19.9704C46 19.1749 45.684 18.4119 45.1216 17.8494L28.1506 0.878359C27.588 0.315946 26.8251 -1.65878e-07 26.0296 -1.31106e-07C25.2341 -9.63341e-08 24.4712 0.315946 23.9086 0.878359Z" fill="black"/>
<path d="M23.9086 0.878359C23.3462 1.44094 23.0303 2.20387 23.0303 2.99936C23.0303 3.79485 23.3462 4.55778 23.9086 5.12036L38.7586 19.9704L23.9086 34.8204C23.3622 35.3862 23.0598 36.144 23.0666 36.9306C23.0734 37.7172 23.389 38.4696 23.9452 39.0258C24.5014 39.582 25.2538 39.8975 26.0404 39.9044C26.827 39.9112 27.5848 39.6088 28.1506 39.0624L45.1216 22.0914C45.684 21.5288 46 20.7659 46 19.9704C46 19.1749 45.684 18.4119 45.1216 17.8494L28.1506 0.878359C27.588 0.315946 26.8251 -1.65878e-07 26.0296 -1.31106e-07C25.2341 -9.63341e-08 24.4712 0.315946 23.9086 0.878359Z" fill="#898989"/>
</svg>
